<?xml version="1.0" encoding="UTF-8" standalone="no"?>
<!DOCTYPE svg PUBLIC "-//W3C//DTD SVG 1.1//EN" "http://www.w3.org/Graphics/SVG/1.1/DTD/svg11.dtd">
<svg width="100%" height="100%" viewBox="0 0 24 24" version="1.1" xmlns="http://www.w3.org/2000/svg" xmlns:xlink="http://www.w3.org/1999/xlink" xml:space="preserve" xmlns:serif="http://www.serif.com/" style="fill-rule:evenodd;clip-rule:evenodd;stroke-linejoin:round;stroke-miterlimit:2;">
    <path d="M13.328,12.071L18.278,17.021C18.473,17.209 18.583,17.469 18.583,17.74C18.583,18.289 18.132,18.74 17.583,18.74C17.312,18.74 17.052,18.63 16.864,18.435L11.207,12.778C10.819,12.39 10.819,11.752 11.207,11.364L16.864,5.707C17.05,5.527 17.3,5.426 17.559,5.426C18.107,5.426 18.559,5.878 18.559,6.426C18.559,6.685 18.458,6.935 18.278,7.121L13.328,12.071ZM7.328,12.071L12.278,17.021C12.473,17.209 12.583,17.469 12.583,17.74C12.583,18.289 12.132,18.74 11.583,18.74C11.312,18.74 11.052,18.63 10.864,18.435L5.207,12.778C4.819,12.39 4.819,11.752 5.207,11.364L10.864,5.707C11.052,5.512 11.312,5.402 11.583,5.402C12.132,5.402 12.583,5.853 12.583,6.402C12.583,6.673 12.473,6.933 12.278,7.121L7.328,12.071Z" style="fill:rgb(242,242,242);fill-rule:nonzero;"/>
</svg>
