<?xml version="1.0" encoding="UTF-8" standalone="no"?>
<!DOCTYPE svg PUBLIC "-//W3C//DTD SVG 1.1//EN" "http://www.w3.org/Graphics/SVG/1.1/DTD/svg11.dtd">
<svg width="100%" height="100%" viewBox="0 0 24 24" version="1.1" xmlns="http://www.w3.org/2000/svg" xmlns:xlink="http://www.w3.org/1999/xlink" xml:space="preserve" xmlns:serif="http://www.serif.com/" style="fill-rule:evenodd;clip-rule:evenodd;stroke-linejoin:round;stroke-miterlimit:2;">
    <path d="M16.314,12.071L11.364,7.121C11.184,6.935 11.083,6.685 11.083,6.426C11.083,5.878 11.535,5.426 12.083,5.426C12.342,5.426 12.592,5.527 12.778,5.707L18.435,11.364C18.823,11.752 18.823,12.39 18.435,12.778L12.778,18.435C12.592,18.615 12.342,18.716 12.083,18.716C11.535,18.716 11.083,18.264 11.083,17.716C11.083,17.457 11.184,17.207 11.364,17.021L16.314,12.071ZM10.314,12.071L5.364,7.121C5.169,6.933 5.059,6.673 5.059,6.402C5.059,5.853 5.51,5.402 6.059,5.402C6.33,5.402 6.59,5.512 6.778,5.707L12.435,11.364C12.823,11.752 12.823,12.39 12.435,12.778L6.778,18.435C6.592,18.615 6.342,18.716 6.083,18.716C5.535,18.716 5.083,18.264 5.083,17.716C5.083,17.457 5.184,17.207 5.364,17.021L10.314,12.071Z" style="fill:rgb(242,242,242);fill-rule:nonzero;"/>
</svg>
